<svg preserveAspectRatio="xMidYMid meet" width="100%" height="100%" overflow="visible" style="display: block;" viewBox="0 0 422 422" fill="none" xmlns="http://www.w3.org/2000/svg">
<g id="Frame 25">
<circle id="Ellipse 1" cx="210.19" cy="210.19" r="179.411" fill="var(--fill-0, white)"/>
<g id="Frame">
<path id="path3758" d="M372.071 130.713C372.171 130.668 394.274 174.446 390.353 220.974C388.216 299.13 319.138 387.787 216.193 390.672L201.842 390.374C95.7505 385.101 30.5578 295.101 30.8643 213.763C31.1257 198.648 31.0626 181.738 37.4449 160.836L43.9533 162.783C71.141 173.058 100.474 252.485 195.829 257.01C199.967 257.209 207.918 257.389 207.9 257.425C201.725 263.581 166.631 278.057 150.703 281.869C154.868 280.869 150.378 281.77 150.703 281.869C189.059 305.638 227.407 259.895 277.203 253.161L292.456 252.26C289.544 243.066 276.41 243.841 275.184 243.959C240.73 247.348 249.339 243.4 248.267 243.733C301.2 227.139 331.705 184.749 369.8 133.21L372.08 130.704L372.071 130.713Z" fill="var(--fill-0, #007EC6)"/>
<path id="path3766" fill-rule="evenodd" clip-rule="evenodd" d="M295.142 51.5476C291.446 49.5827 260.373 30.9157 212.677 30.1676C109.281 30.5371 63.749 106.413 63.749 106.413C86.6278 117.626 110.363 151.39 110.696 151.868C136.298 187.787 171.977 243.454 218.203 244.518C233.005 244.86 242.849 236.009 254.09 225.121C295.133 185.38 300.875 111.902 353.447 101.555C353.447 101.555 333.931 72.1795 295.133 51.5476H295.142ZM180.577 100.148H192.863C197.821 100.148 201.815 104.141 201.815 109.099V138.672C201.815 143.63 197.821 147.623 192.863 147.623H180.577C175.619 147.623 171.625 143.63 171.625 138.672V109.099C171.625 104.141 175.619 100.148 180.577 100.148ZM183.849 108.297H189.591C190.736 108.297 191.656 109.216 191.656 110.361V137.41C191.656 138.555 190.736 139.474 189.591 139.474H183.849C182.704 139.474 181.785 138.555 181.785 137.41V110.361C181.785 109.216 182.704 108.297 183.849 108.297ZM219.447 100.157C214.489 100.157 210.505 104.141 210.505 109.099V147.614H220.655V128.55H230.526V147.614H240.676V109.099C240.676 104.141 236.692 100.157 231.734 100.157H219.456H219.447ZM222.728 108.288H228.444C229.588 108.288 230.517 109.216 230.517 110.361V120.429H220.646V110.361C220.646 109.216 221.575 108.288 222.719 108.288H222.728ZM258.3 100.157C253.342 100.157 249.357 104.141 249.357 109.099V147.614H259.508V128.55H269.378V147.614H279.529V109.099C279.529 104.141 275.544 100.157 270.586 100.157H258.309H258.3ZM261.581 108.288H267.296C268.441 108.288 269.369 109.216 269.369 110.361V120.429H259.498V110.361C259.498 109.216 260.427 108.288 261.572 108.288H261.581ZM132.746 100.157V147.614H142.923V110.361C142.923 109.216 143.825 108.288 144.97 108.288H150.721C151.866 108.288 152.794 109.216 152.794 110.361V147.614H162.944V109.099C162.944 104.141 158.96 100.157 154.002 100.157H132.755H132.746Z" fill="var(--fill-0, #263F78)"/>
</g>
</g>
</svg>
