<?xml version='1.0' encoding='UTF-8'?>
<svg width="35mm" height="35mm" version="1.1" viewBox="0 0 35 35" xmlns="http://www.w3.org/2000/svg"><path d="M1,1H2V2H1zM2,1H3V2H2zM3,1H4V2H3zM4,1H5V2H4zM5,1H6V2H5zM6,1H7V2H6zM7,1H8V2H7zM9,1H10V2H9zM11,1H12V2H11zM12,1H13V2H12zM14,1H15V2H14zM15,1H16V2H15zM18,1H19V2H18zM19,1H20V2H19zM22,1H23V2H22zM27,1H28V2H27zM28,1H29V2H28zM29,1H30V2H29zM30,1H31V2H30zM31,1H32V2H31zM32,1H33V2H32zM33,1H34V2H33zM1,2H2V3H1zM7,2H8V3H7zM12,2H13V3H12zM13,2H14V3H13zM17,2H18V3H17zM25,2H26V3H25zM27,2H28V3H27zM33,2H34V3H33zM1,3H2V4H1zM3,3H4V4H3zM4,3H5V4H4zM5,3H6V4H5zM7,3H8V4H7zM9,3H10V4H9zM11,3H12V4H11zM12,3H13V4H12zM13,3H14V4H13zM14,3H15V4H14zM16,3H17V4H16zM17,3H18V4H17zM18,3H19V4H18zM22,3H23V4H22zM24,3H25V4H24zM27,3H28V4H27zM29,3H30V4H29zM30,3H31V4H30zM31,3H32V4H31zM33,3H34V4H33zM1,4H2V5H1zM3,4H4V5H3zM4,4H5V5H4zM5,4H6V5H5zM7,4H8V5H7zM10,4H11V5H10zM12,4H13V5H12zM13,4H14V5H13zM16,4H17V5H16zM20,4H21V5H20zM24,4H25V5H24zM27,4H28V5H27zM29,4H30V5H29zM30,4H31V5H30zM31,4H32V5H31zM33,4H34V5H33zM1,5H2V6H1zM3,5H4V6H3zM4,5H5V6H4zM5,5H6V6H5zM7,5H8V6H7zM10,5H11V6H10zM11,5H12V6H11zM16,5H17V6H16zM18,5H19V6H18zM20,5H21V6H20zM22,5H23V6H22zM24,5H25V6H24zM27,5H28V6H27zM29,5H30V6H29zM30,5H31V6H30zM31,5H32V6H31zM33,5H34V6H33zM1,6H2V7H1zM7,6H8V7H7zM9,6H10V7H9zM12,6H13V7H12zM13,6H14V7H13zM14,6H15V7H14zM15,6H16V7H15zM16,6H17V7H16zM18,6H19V7H18zM19,6H20V7H19zM20,6H21V7H20zM24,6H25V7H24zM27,6H28V7H27zM33,6H34V7H33zM1,7H2V8H1zM2,7H3V8H2zM3,7H4V8H3zM4,7H5V8H4zM5,7H6V8H5zM6,7H7V8H6zM7,7H8V8H7zM9,7H10V8H9zM11,7H12V8H11zM13,7H14V8H13zM15,7H16V8H15zM17,7H18V8H17zM19,7H20V8H19zM21,7H22V8H21zM23,7H24V8H23zM25,7H26V8H25zM27,7H28V8H27zM28,7H29V8H28zM29,7H30V8H29zM30,7H31V8H30zM31,7H32V8H31zM32,7H33V8H32zM33,7H34V8H33zM10,8H11V9H10zM12,8H13V9H12zM13,8H14V9H13zM15,8H16V9H15zM16,8H17V9H16zM17,8H18V9H17zM19,8H20V9H19zM20,8H21V9H20zM21,8H22V9H21zM24,8H25V9H24zM25,8H26V9H25zM1,9H2V10H1zM3,9H4V10H3zM7,9H8V10H7zM8,9H9V10H8zM11,9H12V10H11zM12,9H13V10H12zM15,9H16V10H15zM17,9H18V10H17zM21,9H22V10H21zM25,9H26V10H25zM28,9H29V10H28zM31,9H32V10H31zM33,9H34V10H33zM1,10H2V11H1zM2,10H3V11H2zM4,10H5V11H4zM5,10H6V11H5zM6,10H7V11H6zM8,10H9V11H8zM10,10H11V11H10zM12,10H13V11H12zM13,10H14V11H13zM14,10H15V11H14zM16,10H17V11H16zM17,10H18V11H17zM18,10H19V11H18zM20,10H21V11H20zM22,10H23V11H22zM23,10H24V11H23zM24,10H25V11H24zM27,10H28V11H27zM30,10H31V11H30zM32,10H33V11H32zM33,10H34V11H33zM1,11H2V12H1zM3,11H4V12H3zM5,11H6V12H5zM6,11H7V12H6zM7,11H8V12H7zM10,11H11V12H10zM12,11H13V12H12zM13,11H14V12H13zM16,11H17V12H16zM17,11H18V12H17zM20,11H21V12H20zM21,11H22V12H21zM24,11H25V12H24zM26,11H27V12H26zM30,11H31V12H30zM31,11H32V12H31zM33,11H34V12H33zM1,12H2V13H1zM3,12H4V13H3zM6,12H7V13H6zM8,12H9V13H8zM12,12H13V13H12zM13,12H14V13H13zM14,12H15V13H14zM16,12H17V13H16zM17,12H18V13H17zM18,12H19V13H18zM21,12H22V13H21zM22,12H23V13H22zM26,12H27V13H26zM28,12H29V13H28zM29,12H30V13H29zM30,12H31V13H30zM32,12H33V13H32zM1,13H2V14H1zM2,13H3V14H2zM3,13H4V14H3zM5,13H6V14H5zM6,13H7V14H6zM7,13H8V14H7zM8,13H9V14H8zM9,13H10V14H9zM11,13H12V14H11zM12,13H13V14H12zM14,13H15V14H14zM18,13H19V14H18zM20,13H21V14H20zM22,13H23V14H22zM24,13H25V14H24zM25,13H26V14H25zM27,13H28V14H27zM28,13H29V14H28zM32,13H33V14H32zM2,14H3V15H2zM3,14H4V15H3zM5,14H6V15H5zM6,14H7V15H6zM10,14H11V15H10zM12,14H13V15H12zM18,14H19V15H18zM26,14H27V15H26zM27,14H28V15H27zM28,14H29V15H28zM32,14H33V15H32zM33,14H34V15H33zM1,15H2V16H1zM3,15H4V16H3zM4,15H5V16H4zM7,15H8V16H7zM8,15H9V16H8zM13,15H14V16H13zM15,15H16V16H15zM16,15H17V16H16zM18,15H19V16H18zM19,15H20V16H19zM20,15H21V16H20zM23,15H24V16H23zM24,15H25V16H24zM28,15H29V16H28zM29,15H30V16H29zM30,15H31V16H30zM33,15H34V16H33zM2,16H3V17H2zM3,16H4V17H3zM6,16H7V17H6zM9,16H10V17H9zM12,16H13V17H12zM19,16H20V17H19zM24,16H25V17H24zM25,16H26V17H25zM26,16H27V17H26zM27,16H28V17H27zM28,16H29V17H28zM30,16H31V17H30zM1,17H2V18H1zM2,17H3V18H2zM3,17H4V18H3zM4,17H5V18H4zM6,17H7V18H6zM7,17H8V18H7zM8,17H9V18H8zM12,17H13V18H12zM13,17H14V18H13zM16,17H17V18H16zM17,17H18V18H17zM20,17H21V18H20zM25,17H26V18H25zM27,17H28V18H27zM28,17H29V18H28zM30,17H31V18H30zM32,17H33V18H32zM1,18H2V19H1zM2,18H3V19H2zM3,18H4V19H3zM4,18H5V19H4zM5,18H6V19H5zM9,18H10V19H9zM10,18H11V19H10zM12,18H13V19H12zM13,18H14V19H13zM15,18H16V19H15zM16,18H17V19H16zM19,18H20V19H19zM20,18H21V19H20zM21,18H22V19H21zM24,18H25V19H24zM25,18H26V19H25zM26,18H27V19H26zM27,18H28V19H27zM30,18H31V19H30zM32,18H33V19H32zM33,18H34V19H33zM3,19H4V20H3zM7,19H8V20H7zM8,19H9V20H8zM9,19H10V20H9zM11,19H12V20H11zM15,19H16V20H15zM16,19H17V20H16zM17,19H18V20H17zM18,19H19V20H18zM19,19H20V20H19zM20,19H21V20H20zM22,19H23V20H22zM23,19H24V20H23zM24,19H25V20H24zM25,19H26V20H25zM27,19H28V20H27zM28,19H29V20H28zM30,19H31V20H30zM31,19H32V20H31zM33,19H34V20H33zM2,20H3V21H2zM3,20H4V21H3zM6,20H7V21H6zM9,20H10V21H9zM11,20H12V21H11zM12,20H13V21H12zM14,20H15V21H14zM16,20H17V21H16zM19,20H20V21H19zM20,20H21V21H20zM23,20H24V21H23zM24,20H25V21H24zM29,20H30V21H29zM30,20H31V21H30zM33,20H34V21H33zM1,21H2V22H1zM3,21H4V22H3zM5,21H6V22H5zM6,21H7V22H6zM7,21H8V22H7zM9,21H10V22H9zM10,21H11V22H10zM11,21H12V22H11zM12,21H13V22H12zM16,21H17V22H16zM17,21H18V22H17zM18,21H19V22H18zM19,21H20V22H19zM20,21H21V22H20zM21,21H22V22H21zM22,21H23V22H22zM23,21H24V22H23zM24,21H25V22H24zM25,21H26V22H25zM27,21H28V22H27zM28,21H29V22H28zM32,21H33V22H32zM2,22H3V23H2zM3,22H4V23H3zM4,22H5V23H4zM5,22H6V23H5zM8,22H9V23H8zM9,22H10V23H9zM10,22H11V23H10zM11,22H12V23H11zM12,22H13V23H12zM13,22H14V23H13zM15,22H16V23H15zM17,22H18V23H17zM19,22H20V23H19zM21,22H22V23H21zM22,22H23V23H22zM23,22H24V23H23zM24,22H25V23H24zM27,22H28V23H27zM28,22H29V23H28zM33,22H34V23H33zM1,23H2V24H1zM2,23H3V24H2zM3,23H4V24H3zM7,23H8V24H7zM12,23H13V24H12zM17,23H18V24H17zM18,23H19V24H18zM21,23H22V24H21zM24,23H25V24H24zM25,23H26V24H25zM26,23H27V24H26zM29,23H30V24H29zM31,23H32V24H31zM33,23H34V24H33zM5,24H6V25H5zM6,24H7V25H6zM8,24H9V25H8zM13,24H14V25H13zM14,24H15V25H14zM15,24H16V25H15zM16,24H17V25H16zM17,24H18V25H17zM20,24H21V25H20zM21,24H22V25H21zM23,24H24V25H23zM24,24H25V25H24zM27,24H28V25H27zM28,24H29V25H28zM32,24H33V25H32zM33,24H34V25H33zM1,25H2V26H1zM2,25H3V26H2zM3,25H4V26H3zM4,25H5V26H4zM6,25H7V26H6zM7,25H8V26H7zM9,25H10V26H9zM10,25H11V26H10zM11,25H12V26H11zM15,25H16V26H15zM17,25H18V26H17zM21,25H22V26H21zM24,25H25V26H24zM25,25H26V26H25zM26,25H27V26H26zM27,25H28V26H27zM28,25H29V26H28zM29,25H30V26H29zM30,25H31V26H30zM32,25H33V26H32zM9,26H10V27H9zM10,26H11V27H10zM12,26H13V27H12zM14,26H15V27H14zM16,26H17V27H16zM17,26H18V27H17zM18,26H19V27H18zM20,26H21V27H20zM21,26H22V27H21zM22,26H23V27H22zM24,26H25V27H24zM25,26H26V27H25zM29,26H30V27H29zM32,26H33V27H32zM33,26H34V27H33zM1,27H2V28H1zM2,27H3V28H2zM3,27H4V28H3zM4,27H5V28H4zM5,27H6V28H5zM6,27H7V28H6zM7,27H8V28H7zM9,27H10V28H9zM12,27H13V28H12zM13,27H14V28H13zM16,27H17V28H16zM20,27H21V28H20zM25,27H26V28H25zM27,27H28V28H27zM29,27H30V28H29zM30,27H31V28H30zM31,27H32V28H31zM33,27H34V28H33zM1,28H2V29H1zM7,28H8V29H7zM12,28H13V29H12zM15,28H16V29H15zM17,28H18V29H17zM18,28H19V29H18zM21,28H22V29H21zM22,28H23V29H22zM24,28H25V29H24zM25,28H26V29H25zM29,28H30V29H29zM30,28H31V29H30zM32,28H33V29H32zM33,28H34V29H33zM1,29H2V30H1zM3,29H4V30H3zM4,29H5V30H4zM5,29H6V30H5zM7,29H8V30H7zM12,29H13V30H12zM15,29H16V30H15zM16,29H17V30H16zM18,29H19V30H18zM20,29H21V30H20zM22,29H23V30H22zM24,29H25V30H24zM25,29H26V30H25zM26,29H27V30H26zM27,29H28V30H27zM28,29H29V30H28zM29,29H30V30H29zM1,30H2V31H1zM3,30H4V31H3zM4,30H5V31H4zM5,30H6V31H5zM7,30H8V31H7zM10,30H11V31H10zM11,30H12V31H11zM12,30H13V31H12zM13,30H14V31H13zM14,30H15V31H14zM18,30H19V31H18zM22,30H23V31H22zM24,30H25V31H24zM26,30H27V31H26zM28,30H29V31H28zM29,30H30V31H29zM30,30H31V31H30zM31,30H32V31H31zM33,30H34V31H33zM1,31H2V32H1zM3,31H4V32H3zM4,31H5V32H4zM5,31H6V32H5zM7,31H8V32H7zM9,31H10V32H9zM10,31H11V32H10zM12,31H13V32H12zM14,31H15V32H14zM15,31H16V32H15zM16,31H17V32H16zM18,31H19V32H18zM19,31H20V32H19zM20,31H21V32H20zM23,31H24V32H23zM24,31H25V32H24zM28,31H29V32H28zM29,31H30V32H29zM31,31H32V32H31zM32,31H33V32H32zM33,31H34V32H33zM1,32H2V33H1zM7,32H8V33H7zM10,32H11V33H10zM11,32H12V33H11zM14,32H15V33H14zM15,32H16V33H15zM24,32H25V33H24zM25,32H26V33H25zM26,32H27V33H26zM27,32H28V33H27zM28,32H29V33H28zM29,32H30V33H29zM30,32H31V33H30zM1,33H2V34H1zM2,33H3V34H2zM3,33H4V34H3zM4,33H5V34H4zM5,33H6V34H5zM6,33H7V34H6zM7,33H8V34H7zM9,33H10V34H9zM10,33H11V34H10zM12,33H13V34H12zM13,33H14V34H13zM16,33H17V34H16zM20,33H21V34H20zM21,33H22V34H21zM25,33H26V34H25zM28,33H29V34H28zM29,33H30V34H29zM30,33H31V34H30zM33,33H34V34H33z" id="qr-path" fill="#000000" fill-opacity="1" fill-rule="nonzero" stroke="none" /></svg>