<?xml version='1.0' encoding='UTF-8'?>
<svg width="31mm" height="31mm" version="1.1" viewBox="0 0 31 31" xmlns="http://www.w3.org/2000/svg"><path d="M1,1H2V2H1zM2,1H3V2H2zM3,1H4V2H3zM4,1H5V2H4zM5,1H6V2H5zM6,1H7V2H6zM7,1H8V2H7zM9,1H10V2H9zM10,1H11V2H10zM11,1H12V2H11zM12,1H13V2H12zM13,1H14V2H13zM14,1H15V2H14zM15,1H16V2H15zM16,1H17V2H16zM18,1H19V2H18zM19,1H20V2H19zM20,1H21V2H20zM21,1H22V2H21zM23,1H24V2H23zM24,1H25V2H24zM25,1H26V2H25zM26,1H27V2H26zM27,1H28V2H27zM28,1H29V2H28zM29,1H30V2H29zM1,2H2V3H1zM7,2H8V3H7zM9,2H10V3H9zM13,2H14V3H13zM14,2H15V3H14zM17,2H18V3H17zM19,2H20V3H19zM21,2H22V3H21zM23,2H24V3H23zM29,2H30V3H29zM1,3H2V4H1zM3,3H4V4H3zM4,3H5V4H4zM5,3H6V4H5zM7,3H8V4H7zM10,3H11V4H10zM11,3H12V4H11zM12,3H13V4H12zM17,3H18V4H17zM19,3H20V4H19zM23,3H24V4H23zM25,3H26V4H25zM26,3H27V4H26zM27,3H28V4H27zM29,3H30V4H29zM1,4H2V5H1zM3,4H4V5H3zM4,4H5V5H4zM5,4H6V5H5zM7,4H8V5H7zM9,4H10V5H9zM11,4H12V5H11zM15,4H16V5H15zM16,4H17V5H16zM18,4H19V5H18zM21,4H22V5H21zM23,4H24V5H23zM25,4H26V5H25zM26,4H27V5H26zM27,4H28V5H27zM29,4H30V5H29zM1,5H2V6H1zM3,5H4V6H3zM4,5H5V6H4zM5,5H6V6H5zM7,5H8V6H7zM10,5H11V6H10zM11,5H12V6H11zM12,5H13V6H12zM15,5H16V6H15zM17,5H18V6H17zM20,5H21V6H20zM23,5H24V6H23zM25,5H26V6H25zM26,5H27V6H26zM27,5H28V6H27zM29,5H30V6H29zM1,6H2V7H1zM7,6H8V7H7zM12,6H13V7H12zM14,6H15V7H14zM16,6H17V7H16zM17,6H18V7H17zM18,6H19V7H18zM20,6H21V7H20zM23,6H24V7H23zM29,6H30V7H29zM1,7H2V8H1zM2,7H3V8H2zM3,7H4V8H3zM4,7H5V8H4zM5,7H6V8H5zM6,7H7V8H6zM7,7H8V8H7zM9,7H10V8H9zM11,7H12V8H11zM13,7H14V8H13zM15,7H16V8H15zM17,7H18V8H17zM19,7H20V8H19zM21,7H22V8H21zM23,7H24V8H23zM24,7H25V8H24zM25,7H26V8H25zM26,7H27V8H26zM27,7H28V8H27zM28,7H29V8H28zM29,7H30V8H29zM9,8H10V9H9zM12,8H13V9H12zM13,8H14V9H13zM16,8H17V9H16zM17,8H18V9H17zM18,8H19V9H18zM21,8H22V9H21zM1,9H2V10H1zM3,9H4V10H3zM4,9H5V10H4zM6,9H7V10H6zM7,9H8V10H7zM8,9H9V10H8zM11,9H12V10H11zM12,9H13V10H12zM14,9H15V10H14zM16,9H17V10H16zM18,9H19V10H18zM19,9H20V10H19zM20,9H21V10H20zM21,9H22V10H21zM23,9H24V10H23zM26,9H27V10H26zM28,9H29V10H28zM29,9H30V10H29zM2,10H3V11H2zM3,10H4V11H3zM4,10H5V11H4zM5,10H6V11H5zM9,10H10V11H9zM10,10H11V11H10zM11,10H12V11H11zM12,10H13V11H12zM14,10H15V11H14zM15,10H16V11H15zM16,10H17V11H16zM19,10H20V11H19zM20,10H21V11H20zM21,10H22V11H21zM22,10H23V11H22zM23,10H24V11H23zM24,10H25V11H24zM25,10H26V11H25zM29,10H30V11H29zM1,11H2V12H1zM3,11H4V12H3zM4,11H5V12H4zM5,11H6V12H5zM6,11H7V12H6zM7,11H8V12H7zM9,11H10V12H9zM11,11H12V12H11zM13,11H14V12H13zM14,11H15V12H14zM17,11H18V12H17zM18,11H19V12H18zM19,11H20V12H19zM22,11H23V12H22zM24,11H25V12H24zM25,11H26V12H25zM27,11H28V12H27zM28,11H29V12H28zM1,12H2V13H1zM2,12H3V13H2zM3,12H4V13H3zM5,12H6V13H5zM6,12H7V13H6zM8,12H9V13H8zM10,12H11V13H10zM11,12H12V13H11zM12,12H13V13H12zM13,12H14V13H13zM17,12H18V13H17zM19,12H20V13H19zM20,12H21V13H20zM21,12H22V13H21zM22,12H23V13H22zM23,12H24V13H23zM24,12H25V13H24zM29,12H30V13H29zM1,13H2V14H1zM2,13H3V14H2zM3,13H4V14H3zM5,13H6V14H5zM6,13H7V14H6zM7,13H8V14H7zM8,13H9V14H8zM10,13H11V14H10zM12,13H13V14H12zM15,13H16V14H15zM16,13H17V14H16zM18,13H19V14H18zM20,13H21V14H20zM24,13H25V14H24zM26,13H27V14H26zM27,13H28V14H27zM1,14H2V15H1zM2,14H3V15H2zM5,14H6V15H5zM11,14H12V15H11zM12,14H13V15H12zM15,14H16V15H15zM17,14H18V15H17zM18,14H19V15H18zM20,14H21V15H20zM21,14H22V15H21zM22,14H23V15H22zM23,14H24V15H23zM27,14H28V15H27zM28,14H29V15H28zM29,14H30V15H29zM3,15H4V16H3zM4,15H5V16H4zM6,15H7V16H6zM7,15H8V16H7zM8,15H9V16H8zM14,15H15V16H14zM16,15H17V16H16zM17,15H18V16H17zM18,15H19V16H18zM20,15H21V16H20zM21,15H22V16H21zM25,15H26V16H25zM27,15H28V16H27zM28,15H29V16H28zM29,15H30V16H29zM1,16H2V17H1zM4,16H5V17H4zM5,16H6V17H5zM6,16H7V17H6zM13,16H14V17H13zM15,16H16V17H15zM17,16H18V17H17zM25,16H26V17H25zM28,16H29V17H28zM1,17H2V18H1zM2,17H3V18H2zM3,17H4V18H3zM4,17H5V18H4zM7,17H8V18H7zM8,17H9V18H8zM9,17H10V18H9zM11,17H12V18H11zM12,17H13V18H12zM13,17H14V18H13zM15,17H16V18H15zM16,17H17V18H16zM19,17H20V18H19zM21,17H22V18H21zM25,17H26V18H25zM26,17H27V18H26zM28,17H29V18H28zM3,18H4V19H3zM4,18H5V19H4zM9,18H10V19H9zM10,18H11V19H10zM12,18H13V19H12zM13,18H14V19H13zM15,18H16V19H15zM17,18H18V19H17zM19,18H20V19H19zM21,18H22V19H21zM24,18H25V19H24zM26,18H27V19H26zM27,18H28V19H27zM28,18H29V19H28zM1,19H2V20H1zM4,19H5V20H4zM7,19H8V20H7zM8,19H9V20H8zM9,19H10V20H9zM10,19H11V20H10zM11,19H12V20H11zM12,19H13V20H12zM13,19H14V20H13zM14,19H15V20H14zM15,19H16V20H15zM16,19H17V20H16zM17,19H18V20H17zM23,19H24V20H23zM24,19H25V20H24zM25,19H26V20H25zM27,19H28V20H27zM3,20H4V21H3zM5,20H6V21H5zM6,20H7V21H6zM10,20H11V21H10zM14,20H15V21H14zM15,20H16V21H15zM16,20H17V21H16zM17,20H18V21H17zM18,20H19V21H18zM20,20H21V21H20zM21,20H22V21H21zM23,20H24V21H23zM27,20H28V21H27zM2,21H3V22H2zM3,21H4V22H3zM4,21H5V22H4zM7,21H8V22H7zM8,21H9V22H8zM9,21H10V22H9zM10,21H11V22H10zM12,21H13V22H12zM14,21H15V22H14zM15,21H16V22H15zM16,21H17V22H16zM17,21H18V22H17zM18,21H19V22H18zM20,21H21V22H20zM21,21H22V22H21zM22,21H23V22H22zM23,21H24V22H23zM24,21H25V22H24zM25,21H26V22H25zM26,21H27V22H26zM27,21H28V22H27zM9,22H10V23H9zM11,22H12V23H11zM12,22H13V23H12zM18,22H19V23H18zM19,22H20V23H19zM20,22H21V23H20zM21,22H22V23H21zM25,22H26V23H25zM26,22H27V23H26zM27,22H28V23H27zM28,22H29V23H28zM29,22H30V23H29zM1,23H2V24H1zM2,23H3V24H2zM3,23H4V24H3zM4,23H5V24H4zM5,23H6V24H5zM6,23H7V24H6zM7,23H8V24H7zM9,23H10V24H9zM15,23H16V24H15zM17,23H18V24H17zM19,23H20V24H19zM20,23H21V24H20zM21,23H22V24H21zM23,23H24V24H23zM25,23H26V24H25zM26,23H27V24H26zM28,23H29V24H28zM1,24H2V25H1zM7,24H8V25H7zM9,24H10V25H9zM10,24H11V25H10zM13,24H14V25H13zM14,24H15V25H14zM15,24H16V25H15zM16,24H17V25H16zM21,24H22V25H21zM25,24H26V25H25zM26,24H27V25H26zM29,24H30V25H29zM1,25H2V26H1zM3,25H4V26H3zM4,25H5V26H4zM5,25H6V26H5zM7,25H8V26H7zM10,25H11V26H10zM11,25H12V26H11zM16,25H17V26H16zM18,25H19V26H18zM21,25H22V26H21zM22,25H23V26H22zM23,25H24V26H23zM24,25H25V26H24zM25,25H26V26H25zM27,25H28V26H27zM28,25H29V26H28zM1,26H2V27H1zM3,26H4V27H3zM4,26H5V27H4zM5,26H6V27H5zM7,26H8V27H7zM9,26H10V27H9zM10,26H11V27H10zM11,26H12V27H11zM13,26H14V27H13zM14,26H15V27H14zM16,26H17V27H16zM17,26H18V27H17zM20,26H21V27H20zM21,26H22V27H21zM22,26H23V27H22zM25,26H26V27H25zM26,26H27V27H26zM29,26H30V27H29zM1,27H2V28H1zM3,27H4V28H3zM4,27H5V28H4zM5,27H6V28H5zM7,27H8V28H7zM9,27H10V28H9zM10,27H11V28H10zM17,27H18V28H17zM18,27H19V28H18zM19,27H20V28H19zM20,27H21V28H20zM21,27H22V28H21zM22,27H23V28H22zM24,27H25V28H24zM27,27H28V28H27zM29,27H30V28H29zM1,28H2V29H1zM7,28H8V29H7zM10,28H11V29H10zM12,28H13V29H12zM15,28H16V29H15zM20,28H21V29H20zM21,28H22V29H21zM22,28H23V29H22zM23,28H24V29H23zM24,28H25V29H24zM26,28H27V29H26zM28,28H29V29H28zM1,29H2V30H1zM2,29H3V30H2zM3,29H4V30H3zM4,29H5V30H4zM5,29H6V30H5zM6,29H7V30H6zM7,29H8V30H7zM9,29H10V30H9zM11,29H12V30H11zM12,29H13V30H12zM13,29H14V30H13zM14,29H15V30H14zM17,29H18V30H17zM19,29H20V30H19zM20,29H21V30H20zM21,29H22V30H21zM23,29H24V30H23zM24,29H25V30H24zM26,29H27V30H26zM28,29H29V30H28z" id="qr-path" fill="#000000" fill-opacity="1" fill-rule="nonzero" stroke="none" /></svg>