<?xml version='1.0' encoding='UTF-8'?>
<svg width="35mm" height="35mm" version="1.1" viewBox="0 0 35 35" xmlns="http://www.w3.org/2000/svg"><path d="M1,1H2V2H1zM2,1H3V2H2zM3,1H4V2H3zM4,1H5V2H4zM5,1H6V2H5zM6,1H7V2H6zM7,1H8V2H7zM9,1H10V2H9zM12,1H13V2H12zM13,1H14V2H13zM14,1H15V2H14zM16,1H17V2H16zM17,1H18V2H17zM24,1H25V2H24zM27,1H28V2H27zM28,1H29V2H28zM29,1H30V2H29zM30,1H31V2H30zM31,1H32V2H31zM32,1H33V2H32zM33,1H34V2H33zM1,2H2V3H1zM7,2H8V3H7zM10,2H11V3H10zM14,2H15V3H14zM15,2H16V3H15zM17,2H18V3H17zM20,2H21V3H20zM21,2H22V3H21zM27,2H28V3H27zM33,2H34V3H33zM1,3H2V4H1zM3,3H4V4H3zM4,3H5V4H4zM5,3H6V4H5zM7,3H8V4H7zM10,3H11V4H10zM15,3H16V4H15zM16,3H17V4H16zM17,3H18V4H17zM18,3H19V4H18zM22,3H23V4H22zM23,3H24V4H23zM24,3H25V4H24zM25,3H26V4H25zM27,3H28V4H27zM29,3H30V4H29zM30,3H31V4H30zM31,3H32V4H31zM33,3H34V4H33zM1,4H2V5H1zM3,4H4V5H3zM4,4H5V5H4zM5,4H6V5H5zM7,4H8V5H7zM9,4H10V5H9zM10,4H11V5H10zM11,4H12V5H11zM12,4H13V5H12zM17,4H18V5H17zM19,4H20V5H19zM20,4H21V5H20zM21,4H22V5H21zM25,4H26V5H25zM27,4H28V5H27zM29,4H30V5H29zM30,4H31V5H30zM31,4H32V5H31zM33,4H34V5H33zM1,5H2V6H1zM3,5H4V6H3zM4,5H5V6H4zM5,5H6V6H5zM7,5H8V6H7zM9,5H10V6H9zM10,5H11V6H10zM11,5H12V6H11zM13,5H14V6H13zM14,5H15V6H14zM17,5H18V6H17zM19,5H20V6H19zM24,5H25V6H24zM27,5H28V6H27zM29,5H30V6H29zM30,5H31V6H30zM31,5H32V6H31zM33,5H34V6H33zM1,6H2V7H1zM7,6H8V7H7zM9,6H10V7H9zM10,6H11V7H10zM13,6H14V7H13zM15,6H16V7H15zM16,6H17V7H16zM20,6H21V7H20zM21,6H22V7H21zM22,6H23V7H22zM23,6H24V7H23zM27,6H28V7H27zM33,6H34V7H33zM1,7H2V8H1zM2,7H3V8H2zM3,7H4V8H3zM4,7H5V8H4zM5,7H6V8H5zM6,7H7V8H6zM7,7H8V8H7zM9,7H10V8H9zM11,7H12V8H11zM13,7H14V8H13zM15,7H16V8H15zM17,7H18V8H17zM19,7H20V8H19zM21,7H22V8H21zM23,7H24V8H23zM25,7H26V8H25zM27,7H28V8H27zM28,7H29V8H28zM29,7H30V8H29zM30,7H31V8H30zM31,7H32V8H31zM32,7H33V8H32zM33,7H34V8H33zM9,8H10V9H9zM11,8H12V9H11zM18,8H19V9H18zM19,8H20V9H19zM22,8H23V9H22zM24,8H25V9H24zM25,8H26V9H25zM1,9H2V10H1zM5,9H6V10H5zM7,9H8V10H7zM8,9H9V10H8zM9,9H10V10H9zM10,9H11V10H10zM12,9H13V10H12zM13,9H14V10H13zM16,9H17V10H16zM17,9H18V10H17zM18,9H19V10H18zM21,9H22V10H21zM22,9H23V10H22zM23,9H24V10H23zM24,9H25V10H24zM25,9H26V10H25zM26,9H27V10H26zM27,9H28V10H27zM28,9H29V10H28zM29,9H30V10H29zM30,9H31V10H30zM33,9H34V10H33zM3,10H4V11H3zM8,10H9V11H8zM9,10H10V11H9zM10,10H11V11H10zM15,10H16V11H15zM16,10H17V11H16zM17,10H18V11H17zM18,10H19V11H18zM19,10H20V11H19zM22,10H23V11H22zM23,10H24V11H23zM24,10H25V11H24zM25,10H26V11H25zM26,10H27V11H26zM30,10H31V11H30zM31,10H32V11H31zM32,10H33V11H32zM2,11H3V12H2zM4,11H5V12H4zM5,11H6V12H5zM6,11H7V12H6zM7,11H8V12H7zM8,11H9V12H8zM14,11H15V12H14zM15,11H16V12H15zM16,11H17V12H16zM17,11H18V12H17zM18,11H19V12H18zM19,11H20V12H19zM24,11H25V12H24zM25,11H26V12H25zM26,11H27V12H26zM27,11H28V12H27zM30,11H31V12H30zM32,11H33V12H32zM2,12H3V13H2zM3,12H4V13H3zM10,12H11V13H10zM14,12H15V13H14zM17,12H18V13H17zM18,12H19V13H18zM19,12H20V13H19zM21,12H22V13H21zM22,12H23V13H22zM24,12H25V13H24zM26,12H27V13H26zM27,12H28V13H27zM2,13H3V14H2zM3,13H4V14H3zM5,13H6V14H5zM7,13H8V14H7zM8,13H9V14H8zM13,13H14V14H13zM14,13H15V14H14zM16,13H17V14H16zM17,13H18V14H17zM18,13H19V14H18zM20,13H21V14H20zM21,13H22V14H21zM22,13H23V14H22zM23,13H24V14H23zM25,13H26V14H25zM27,13H28V14H27zM29,13H30V14H29zM30,13H31V14H30zM32,13H33V14H32zM33,13H34V14H33zM1,14H2V15H1zM2,14H3V15H2zM3,14H4V15H3zM4,14H5V15H4zM5,14H6V15H5zM10,14H11V15H10zM11,14H12V15H11zM15,14H16V15H15zM19,14H20V15H19zM23,14H24V15H23zM24,14H25V15H24zM25,14H26V15H25zM30,14H31V15H30zM2,15H3V16H2zM4,15H5V16H4zM5,15H6V16H5zM7,15H8V16H7zM8,15H9V16H8zM10,15H11V16H10zM13,15H14V16H13zM16,15H17V16H16zM23,15H24V16H23zM24,15H25V16H24zM25,15H26V16H25zM26,15H27V16H26zM27,15H28V16H27zM28,15H29V16H28zM31,15H32V16H31zM32,15H33V16H32zM8,16H9V17H8zM10,16H11V17H10zM11,16H12V17H11zM13,16H14V17H13zM16,16H17V17H16zM17,16H18V17H17zM18,16H19V17H18zM20,16H21V17H20zM21,16H22V17H21zM22,16H23V17H22zM24,16H25V17H24zM26,16H27V17H26zM27,16H28V17H27zM28,16H29V17H28zM29,16H30V17H29zM1,17H2V18H1zM5,17H6V18H5zM6,17H7V18H6zM7,17H8V18H7zM8,17H9V18H8zM13,17H14V18H13zM15,17H16V18H15zM17,17H18V18H17zM18,17H19V18H18zM19,17H20V18H19zM22,17H23V18H22zM23,17H24V18H23zM25,17H26V18H25zM27,17H28V18H27zM29,17H30V18H29zM30,17H31V18H30zM32,17H33V18H32zM1,18H2V19H1zM2,18H3V19H2zM3,18H4V19H3zM4,18H5V19H4zM5,18H6V19H5zM10,18H11V19H10zM12,18H13V19H12zM13,18H14V19H13zM14,18H15V19H14zM15,18H16V19H15zM16,18H17V19H16zM17,18H18V19H17zM18,18H19V19H18zM19,18H20V19H19zM24,18H25V19H24zM26,18H27V19H26zM30,18H31V19H30zM31,18H32V19H31zM4,19H5V20H4zM6,19H7V20H6zM7,19H8V20H7zM8,19H9V20H8zM9,19H10V20H9zM11,19H12V20H11zM14,19H15V20H14zM15,19H16V20H15zM16,19H17V20H16zM18,19H19V20H18zM19,19H20V20H19zM21,19H22V20H21zM23,19H24V20H23zM24,19H25V20H24zM25,19H26V20H25zM27,19H28V20H27zM28,19H29V20H28zM30,19H31V20H30zM32,19H33V20H32zM1,20H2V21H1zM4,20H5V21H4zM6,20H7V21H6zM9,20H10V21H9zM11,20H12V21H11zM13,20H14V21H13zM15,20H16V21H15zM18,20H19V21H18zM22,20H23V21H22zM24,20H25V21H24zM27,20H28V21H27zM28,20H29V21H28zM32,20H33V21H32zM33,20H34V21H33zM1,21H2V22H1zM2,21H3V22H2zM5,21H6V22H5zM6,21H7V22H6zM7,21H8V22H7zM8,21H9V22H8zM9,21H10V22H9zM10,21H11V22H10zM12,21H13V22H12zM13,21H14V22H13zM14,21H15V22H14zM15,21H16V22H15zM16,21H17V22H16zM19,21H20V22H19zM21,21H22V22H21zM22,21H23V22H22zM23,21H24V22H23zM25,21H26V22H25zM27,21H28V22H27zM28,21H29V22H28zM29,21H30V22H29zM30,21H31V22H30zM1,22H2V23H1zM3,22H4V23H3zM5,22H6V23H5zM6,22H7V23H6zM9,22H10V23H9zM10,22H11V23H10zM11,22H12V23H11zM12,22H13V23H12zM14,22H15V23H14zM17,22H18V23H17zM18,22H19V23H18zM19,22H20V23H19zM21,22H22V23H21zM22,22H23V23H22zM23,22H24V23H23zM24,22H25V23H24zM28,22H29V23H28zM31,22H32V23H31zM32,22H33V23H32zM4,23H5V24H4zM5,23H6V24H5zM6,23H7V24H6zM7,23H8V24H7zM13,23H14V24H13zM14,23H15V24H14zM17,23H18V24H17zM19,23H20V24H19zM22,23H23V24H22zM24,23H25V24H24zM26,23H27V24H26zM27,23H28V24H27zM29,23H30V24H29zM31,23H32V24H31zM32,23H33V24H32zM3,24H4V25H3zM10,24H11V25H10zM11,24H12V25H11zM13,24H14V25H13zM15,24H16V25H15zM18,24H19V25H18zM20,24H21V25H20zM22,24H23V25H22zM23,24H24V25H23zM27,24H28V25H27zM29,24H30V25H29zM32,24H33V25H32zM33,24H34V25H33zM1,25H2V26H1zM2,25H3V26H2zM4,25H5V26H4zM5,25H6V26H5zM7,25H8V26H7zM9,25H10V26H9zM11,25H12V26H11zM13,25H14V26H13zM16,25H17V26H16zM18,25H19V26H18zM20,25H21V26H20zM21,25H22V26H21zM22,25H23V26H22zM25,25H26V26H25zM26,25H27V26H26zM27,25H28V26H27zM28,25H29V26H28zM29,25H30V26H29zM30,25H31V26H30zM33,25H34V26H33zM9,26H10V27H9zM10,26H11V27H10zM12,26H13V27H12zM14,26H15V27H14zM16,26H17V27H16zM18,26H19V27H18zM19,26H20V27H19zM25,26H26V27H25zM29,26H30V27H29zM31,26H32V27H31zM32,26H33V27H32zM1,27H2V28H1zM2,27H3V28H2zM3,27H4V28H3zM4,27H5V28H4zM5,27H6V28H5zM6,27H7V28H6zM7,27H8V28H7zM9,27H10V28H9zM11,27H12V28H11zM14,27H15V28H14zM16,27H17V28H16zM19,27H20V28H19zM21,27H22V28H21zM22,27H23V28H22zM25,27H26V28H25zM27,27H28V28H27zM29,27H30V28H29zM30,27H31V28H30zM1,28H2V29H1zM7,28H8V29H7zM10,28H11V29H10zM12,28H13V29H12zM13,28H14V29H13zM20,28H21V29H20zM21,28H22V29H21zM22,28H23V29H22zM23,28H24V29H23zM25,28H26V29H25zM29,28H30V29H29zM32,28H33V29H32zM1,29H2V30H1zM3,29H4V30H3zM4,29H5V30H4zM5,29H6V30H5zM7,29H8V30H7zM9,29H10V30H9zM11,29H12V30H11zM12,29H13V30H12zM13,29H14V30H13zM14,29H15V30H14zM16,29H17V30H16zM17,29H18V30H17zM20,29H21V30H20zM22,29H23V30H22zM23,29H24V30H23zM25,29H26V30H25zM26,29H27V30H26zM27,29H28V30H27zM28,29H29V30H28zM29,29H30V30H29zM30,29H31V30H30zM32,29H33V30H32zM33,29H34V30H33zM1,30H2V31H1zM3,30H4V31H3zM4,30H5V31H4zM5,30H6V31H5zM7,30H8V31H7zM11,30H12V31H11zM12,30H13V31H12zM14,30H15V31H14zM18,30H19V31H18zM19,30H20V31H19zM22,30H23V31H22zM24,30H25V31H24zM27,30H28V31H27zM28,30H29V31H28zM29,30H30V31H29zM30,30H31V31H30zM31,30H32V31H31zM1,31H2V32H1zM3,31H4V32H3zM4,31H5V32H4zM5,31H6V32H5zM7,31H8V32H7zM10,31H11V32H10zM15,31H16V32H15zM16,31H17V32H16zM18,31H19V32H18zM21,31H22V32H21zM25,31H26V32H25zM27,31H28V32H27zM28,31H29V32H28zM29,31H30V32H29zM30,31H31V32H30zM1,32H2V33H1zM7,32H8V33H7zM10,32H11V33H10zM15,32H16V33H15zM16,32H17V33H16zM17,32H18V33H17zM18,32H19V33H18zM19,32H20V33H19zM21,32H22V33H21zM22,32H23V33H22zM23,32H24V33H23zM25,32H26V33H25zM27,32H28V33H27zM1,33H2V34H1zM2,33H3V34H2zM3,33H4V34H3zM4,33H5V34H4zM5,33H6V34H5zM6,33H7V34H6zM7,33H8V34H7zM9,33H10V34H9zM13,33H14V34H13zM15,33H16V34H15zM18,33H19V34H18zM20,33H21V34H20zM21,33H22V34H21zM22,33H23V34H22zM23,33H24V34H23zM24,33H25V34H24zM25,33H26V34H25zM27,33H28V34H27zM33,33H34V34H33z" id="qr-path" fill="#000000" fill-opacity="1" fill-rule="nonzero" stroke="none" /></svg>